# xmcd
#
# Track frame offsets:
#	150
#	16484
#	33481
#	49993
#	67509
#	83526
#	100182
#	117522
#	144941
#	162068
#	178164
#	199788
#	218985
#	254109
#	273198
#	289266
#	306383
#	322350
#	340590
#
# Disc length: 4785 seconds
#
# Revision: 0
# Processed by: cddbd v1.5.1PL0 Copyright (c) Steve Scherf et al.
# Submitted via: dBpowerAMP V4.0
#
DISCID=1c12af13
DTITLE=Various Artist - Volume 3
DYEAR=2004
DGENRE=Musical
TTITLE0=The Black Eyed Peas - Let's Get It Started
TTITLE1=Blink 182 - I Miss You
TTITLE2=Christina Millian - Dit It Low (feat. Wilbur Pan)
TTITLE3=Hoobastank - The Reason
TTITLE4=Keane - Everybody's Changing
TTITLE5=Kanye West - Through The Wire
TTITLE6=Nina Sky - Move Ya Body (feat. Jabba)
TTITLE7=Alicia Keys - You Don't Know My Name
TTITLE8=Britney Spears - Everytime
TTITLE9=Jet - Are You Gonna Be My Girl
TTITLE10=Justine Timberlake - Cry Me A River
TTITLE11=Maroon 5 - She Will Be Loved
TTITLE12=R Kelly - Happy People
TTITLE13=Usher - Burn
TTITLE14=Jaime Cullum - Wind Cries Mary
TTITLE15=Sarah Mclachlan - Fallen
TTITLE16=William Hung - She Bangs
TTITLE17=Avril Lavigne - Happy Ending
TTITLE18=Beyonce - Baby Boy
EXTD=
EXTT0=
EXTT1=
EXTT2=
EXTT3=
EXTT4=
EXTT5=
EXTT6=
EXTT7=
EXTT8=
EXTT9=
EXTT10=
EXTT11=
EXTT12=
EXTT13=
EXTT14=
EXTT15=
EXTT16=
EXTT17=
EXTT18=
PLAYORDER=
